<?xml version="1.0" encoding="utf-8"?>
<!-- Generator: Adobe Illustrator 16.0.0, SVG Export Plug-In . SVG Version: 6.00 Build 0)  -->
<!DOCTYPE svg PUBLIC "-//W3C//DTD SVG 1.1//EN" "http://www.w3.org/Graphics/SVG/1.1/DTD/svg11.dtd">
<svg version="1.1" id="Capa_1" xmlns="http://www.w3.org/2000/svg" xmlns:xlink="http://www.w3.org/1999/xlink" x="0px" y="0px"
	 width="357.029px" height="60px" viewBox="-41.011 -7.629 357.029 60" enable-background="new -41.011 -7.629 357.029 60"
	 xml:space="preserve">
<g>
	<rect x="-40.698" y="48.595" fill-rule="evenodd" clip-rule="evenodd" fill="#006F9A" width="112.957" height="0.747"/>
	<path fill-rule="evenodd" clip-rule="evenodd" fill="#006F9A" d="M261.476,14.827c2.189,0.631,4.68,1.237,7.244,1.889
		c1.14,0.29,2.446,0.605,3.792,0.999c4.771,1.388,9.902,4.034,9.986,9.776c0.078,5.31-4.306,9.616-9.615,9.616h-28.767v-5.408h3.203
		l0.006,2.786l19.378-0.003c1.368,0,2.478-1.109,2.478-2.478c0-1.541-1.973-2.818-4.243-3.784c-2.271-0.967-4.841-1.622-6.035-1.92
		c-8.54-2.13-15.048-4.235-15.052-11.739h-0.001v-0.056c0-4.906,3.617-8.964,8.327-9.669c0.542-0.082,1.029-0.104,1.57-0.104h25.988
		v5.322h-3.145l-0.007-2.619h-20.273c-1.366,0-2.459,1.071-2.478,2.438C253.796,12.625,259.508,14.249,261.476,14.827"/>
	<path fill-rule="evenodd" clip-rule="evenodd" fill="#006F9A" d="M120.86,34.458L99.601-7.629L78.254,34.458h-3.16v2.649h9.6
		v-2.637h-3.171l3.956-7.782h16.571l3.927,7.771h-3.706v2.647h21.752v-2.649H120.86z M86.93,23.846L86.93,23.846l6.854-13.516
		l6.826,13.516H86.93z"/>
	<path fill-rule="evenodd" clip-rule="evenodd" fill="#006F9A" d="M195.136,6.036c-3.708-1.657-5.705-1.421-9.69-1.421h-19.163v2.75
		h3.146v26.972h-3.154l-0.005,2.684h18.566c4.943,0.157,7.413,0.392,11.803-2.19c4.911-2.889,7.932-8.129,7.932-13.839
		C204.57,14.722,200.863,8.598,195.136,6.036 M188.531,34.342L188.531,34.342c-2.672,0-3.881-0.004-3.881-0.004l-0.012-26.973
		c0,0,1.218-0.005,3.893-0.005c7.246,0,13.12,6.386,13.12,13.631C201.651,28.237,195.777,34.342,188.531,34.342"/>
	<polygon fill-rule="evenodd" clip-rule="evenodd" fill="#006F9A" points="123.83,34.426 123.83,37.108 133.115,37.108 
		133.115,34.426 129.909,34.426 129.909,10.088 150.188,37.108 160.563,37.108 160.563,7.445 163.66,7.445 163.66,4.696 
		154.468,4.696 154.468,7.445 157.557,7.445 157.555,25.502 142.472,4.712 123.826,4.712 123.826,7.445 127.032,7.445 
		127.032,34.426 	"/>
	<polygon fill-rule="evenodd" clip-rule="evenodd" fill="#006F9A" points="238.757,7.445 238.757,10.075 241.853,10.075 
		241.853,4.708 205.071,4.708 205.071,7.438 208.159,7.438 208.159,34.426 205.063,34.426 205.059,37.108 241.853,37.108 
		241.853,31.803 238.753,31.803 238.753,34.426 223.438,34.426 223.427,18.106 235.664,18.106 235.664,15.354 223.427,15.354 
		223.427,7.445 	"/>
	<polygon fill-rule="evenodd" clip-rule="evenodd" fill="#006F9A" points="-19.538,7.395 -19.546,4.708 -40.998,4.708 
		-40.998,7.395 -37.909,7.395 -37.909,34.425 -41.005,34.425 -41.011,37.108 -4.217,37.108 -4.217,31.803 -7.376,31.803 
		-7.376,34.426 -22.63,34.426 -22.641,7.395 	"/>
	<path fill-rule="evenodd" clip-rule="evenodd" fill="#006F9A" d="M26.212,5.861c-4.767-2.147-17.945-2.147-22.712,0
		c-5.894,2.655-9.708,8.65-9.708,15.148c0,5.917,3.107,11.348,8.162,14.341c5.618,3.329,20.186,3.329,25.803,0
		c5.055-2.993,8.162-8.423,8.162-14.341C35.919,14.511,32.105,8.516,26.212,5.861 M19.418,34.844L19.418,34.844
		c-2.75,0-6.188-0.003-6.188-0.003L13.218,7.237c0,0,3.448-0.005,6.2-0.005c7.454,0,13.497,6.268,13.497,13.777
		C32.915,28.519,26.872,34.844,19.418,34.844"/>
	<path fill-rule="evenodd" clip-rule="evenodd" fill="#006F9A" d="M54.946,14.827c2.189,0.631,4.68,1.237,7.244,1.889
		c1.14,0.29,2.446,0.605,3.792,0.999c4.771,1.388,9.904,4.034,9.987,9.776c0.078,5.31-4.307,9.616-9.616,9.616H37.588v-5.408h3.203
		l0.006,2.786l19.377-0.003c1.367,0,2.477-1.109,2.477-2.478c0-1.541-1.972-2.818-4.242-3.784c-2.271-0.967-4.84-1.622-6.036-1.92
		c-8.539-2.13-15.046-4.235-15.049-11.739H37.32v-0.056c0-4.906,3.617-8.964,8.328-9.669c0.542-0.082,1.027-0.104,1.57-0.104h25.988
		v5.322h-3.146l-0.006-2.619H49.78c-1.367,0-2.459,1.071-2.476,2.438C47.268,12.625,52.979,14.249,54.946,14.827"/>
	<path fill="#006F9A" d="M312.919,5.922V5.363c0.006-0.569,0.133-0.955,0.38-1.155c0.247-0.201,0.58-0.301,0.999-0.301
		c0.559,0.006,0.931,0.165,1.115,0.474c0.101,0.155,0.171,0.336,0.21,0.543c0.042,0.204,0.063,0.434,0.063,0.691v0.369v0.653v0.561
		c-0.007,0.568-0.133,0.953-0.379,1.154c-0.247,0.2-0.581,0.3-0.999,0.3c-0.559-0.006-0.931-0.164-1.116-0.473
		c-0.1-0.154-0.17-0.336-0.209-0.543c-0.042-0.204-0.063-0.434-0.063-0.691V6.576V5.922z M314.647,5.921V5.53
		c0-0.343-0.039-0.558-0.119-0.647c-0.054-0.085-0.117-0.125-0.189-0.119c-0.105-0.006-0.197,0.026-0.272,0.099
		c-0.033,0.04-0.061,0.098-0.082,0.174c-0.017,0.065-0.025,0.159-0.025,0.281v1.304c0,0.006,0,0.012-0.001,0.016v0.392
		c0,0.342,0.038,0.558,0.117,0.646c0.056,0.086,0.118,0.125,0.189,0.119c0.107,0.006,0.197-0.026,0.273-0.099
		c0.034-0.04,0.062-0.097,0.082-0.173c0.018-0.067,0.025-0.16,0.025-0.283V5.937C314.646,5.931,314.646,5.926,314.647,5.921"/>
	<path fill-rule="evenodd" clip-rule="evenodd" fill="#006F9A" d="M284.531,10.704h2.68v19.298h3.641V4.794l-2.986,0.011
		c0.023,1.107-0.273,1.896-0.889,2.369c-0.604,0.473-1.418,0.778-2.445,0.917V10.704z"/>
	<path fill-rule="evenodd" clip-rule="evenodd" fill="#006F9A" d="M291.841,20.715v3.583c0,0.899,0.074,1.708,0.222,2.422
		c0.137,0.727,0.382,1.36,0.735,1.903c0.647,1.084,1.952,1.639,3.91,1.662c1.47,0,2.637-0.351,3.502-1.056
		c0.865-0.703,1.31-2.052,1.332-4.048v-4.238c0.022-0.808-0.121-1.505-0.433-2.093c-0.334-0.565-1.181-1.073-2.541-1.522v-0.138
		c0.634-0.15,1.152-0.363,1.556-0.64c0.369-0.265,0.663-0.548,0.883-0.848c0.379-0.669,0.558-1.402,0.535-2.198V9.424
		c0-0.704-0.074-1.361-0.223-1.971c-0.158-0.624-0.427-1.148-0.803-1.575c-0.353-0.415-0.83-0.755-1.435-1.021
		c-0.604-0.23-1.36-0.345-2.271-0.345c-1.604,0-2.829,0.363-3.673,1.089c-0.864,0.784-1.297,2.128-1.297,4.031v4.116h3.641V9.923
		c0-0.542,0.054-1.073,0.161-1.592c0.073-0.265,0.193-0.467,0.361-0.606c0.168-0.138,0.438-0.207,0.811-0.207
		c0.612,0.022,0.954,0.363,1.026,1.021c0.037,0.657,0.054,1.471,0.054,2.44v2.267c0,0.761-0.138,1.378-0.414,1.852
		c-0.324,0.473-0.99,0.686-1.999,0.64v3.003h0.594c0.588,0,1.045,0.139,1.369,0.415c0.3,0.313,0.45,0.85,0.45,1.611v4.572
		c0,0.428-0.029,0.757-0.09,0.988c-0.071,0.267-0.168,0.468-0.288,0.607c-0.264,0.253-0.582,0.369-0.954,0.346
		c-0.254,0.023-0.476-0.115-0.668-0.415c-0.275-0.313-0.413-1.068-0.413-2.269v-3.881H291.841z"/>
	<path fill-rule="evenodd" clip-rule="evenodd" fill="#006F9A" d="M302.596,20.72v5.293c0,0.795,0.153,1.464,0.461,2.007
		c0.251,0.542,0.587,0.992,1.008,1.35c0.912,0.61,1.988,0.915,3.23,0.915c1.025-0.021,1.863-0.171,2.513-0.447
		c0.66-0.265,1.173-0.633,1.538-1.105c0.377-0.473,0.632-1.013,0.77-1.622c0.124-0.61,0.188-1.273,0.188-1.987v-6.11v-0.949
		c0-0.311-0.027-0.604-0.083-0.88c-0.09-0.599-0.248-1.105-0.471-1.519c-0.214-0.472-0.522-0.829-0.925-1.07
		c-0.415-0.253-0.946-0.38-1.598-0.38c-1.071,0.046-2.02,0.409-2.844,1.089V7.801h5.669V4.794h-9.309v13.415h3.606
		c0.121-0.514,0.489-0.771,1.107-0.771c0.474,0,0.794,0.167,0.963,0.501c0.157,0.324,0.235,0.721,0.235,1.194v6.313
		c0,0.473-0.054,0.888-0.161,1.245c-0.12,0.392-0.415,0.588-0.883,0.588c-0.589,0-0.967-0.196-1.136-0.587
		c-0.178-0.357-0.258-0.773-0.233-1.246v-4.718L302.596,20.72z"/>
	<path fill-rule="evenodd" clip-rule="evenodd" fill="#006F9A" d="M287.649,35.391l-1.19-2.617l-1.195,2.617H287.649z
		 M286.305,32.405h0.322l2.107,4.555h-0.369l-0.575-1.266h-2.668l-0.575,1.266h-0.349L286.305,32.405z"/>
	<path fill-rule="evenodd" clip-rule="evenodd" fill="#006F9A" d="M289.27,33.664h0.317v0.615c0.112-0.195,0.263-0.359,0.452-0.492
		c0.19-0.134,0.435-0.2,0.737-0.2c0.206,0,0.392,0.033,0.555,0.101c0.164,0.066,0.303,0.161,0.417,0.281s0.2,0.264,0.258,0.43
		c0.059,0.165,0.088,0.348,0.088,0.545v2.017h-0.316v-1.957c0-0.341-0.091-0.614-0.271-0.817c-0.182-0.205-0.439-0.308-0.776-0.308
		c-0.163,0-0.313,0.028-0.452,0.087c-0.138,0.058-0.259,0.139-0.36,0.243c-0.104,0.103-0.185,0.228-0.242,0.37
		c-0.06,0.146-0.088,0.304-0.088,0.476v1.906h-0.317V33.664z"/>
	<path fill-rule="evenodd" clip-rule="evenodd" fill="#006F9A" d="M292.92,33.664h0.316v3.296h-0.316V33.664z M292.882,32.373h0.394
		v0.432h-0.394V32.373z"/>
	<polygon fill-rule="evenodd" clip-rule="evenodd" fill="#006F9A" points="293.789,33.664 294.158,33.664 295.405,36.605 
		296.665,33.664 297.021,33.664 295.541,36.985 295.27,36.985 	"/>
	<path fill-rule="evenodd" clip-rule="evenodd" fill="#006F9A" d="M300.044,35.157c-0.013-0.167-0.046-0.329-0.102-0.481
		c-0.054-0.153-0.129-0.288-0.227-0.407c-0.096-0.118-0.217-0.213-0.358-0.284c-0.144-0.07-0.311-0.106-0.5-0.106
		c-0.164,0-0.316,0.032-0.46,0.098c-0.142,0.063-0.267,0.153-0.372,0.268c-0.106,0.114-0.194,0.25-0.262,0.407
		c-0.069,0.157-0.111,0.325-0.124,0.507H300.044z M298.923,37.038c-0.217,0-0.423-0.041-0.618-0.123
		c-0.196-0.082-0.369-0.198-0.518-0.35c-0.15-0.15-0.267-0.33-0.354-0.542c-0.086-0.211-0.13-0.445-0.13-0.704v-0.013
		c0-0.237,0.04-0.46,0.12-0.669c0.078-0.209,0.188-0.393,0.329-0.547c0.14-0.155,0.304-0.278,0.494-0.368
		c0.189-0.091,0.396-0.136,0.621-0.136c0.232,0,0.44,0.044,0.626,0.132c0.185,0.089,0.344,0.21,0.476,0.365
		c0.131,0.155,0.231,0.337,0.304,0.547c0.071,0.209,0.105,0.436,0.105,0.682v0.068c0,0.015-0.002,0.035-0.006,0.062h-2.733
		c0.013,0.204,0.059,0.387,0.136,0.545c0.078,0.159,0.175,0.295,0.292,0.406c0.116,0.111,0.25,0.196,0.398,0.254
		c0.149,0.058,0.306,0.086,0.47,0.086c0.259,0,0.479-0.049,0.657-0.148c0.18-0.099,0.338-0.222,0.477-0.368l0.219,0.193
		c-0.168,0.181-0.358,0.331-0.571,0.45C299.502,36.978,299.238,37.038,298.923,37.038"/>
	<path fill-rule="evenodd" clip-rule="evenodd" fill="#006F9A" d="M300.947,33.664h0.317v0.938c0.063-0.146,0.146-0.281,0.246-0.407
		c0.099-0.124,0.21-0.231,0.335-0.32c0.125-0.087,0.262-0.155,0.41-0.2c0.148-0.044,0.305-0.064,0.469-0.062v0.349h-0.032
		c-0.189,0-0.371,0.036-0.543,0.107s-0.324,0.176-0.456,0.316c-0.131,0.142-0.235,0.313-0.313,0.518
		c-0.077,0.205-0.115,0.439-0.115,0.707v1.351h-0.317V33.664z"/>
	<path fill-rule="evenodd" clip-rule="evenodd" fill="#006F9A" d="M304.241,37.025c-0.242,0-0.482-0.045-0.724-0.136
		c-0.242-0.09-0.451-0.206-0.628-0.35l0.188-0.251c0.181,0.137,0.37,0.243,0.569,0.318c0.197,0.076,0.402,0.113,0.613,0.113
		c0.224,0,0.412-0.056,0.564-0.167c0.152-0.112,0.229-0.265,0.229-0.458v-0.014c0-0.095-0.024-0.177-0.071-0.244
		c-0.047-0.069-0.111-0.13-0.193-0.181c-0.082-0.053-0.175-0.095-0.278-0.13c-0.103-0.034-0.213-0.068-0.329-0.102
		c-0.133-0.04-0.27-0.081-0.403-0.123c-0.136-0.044-0.258-0.098-0.365-0.164s-0.194-0.15-0.262-0.249
		c-0.066-0.099-0.101-0.222-0.101-0.367V34.51c0-0.134,0.026-0.255,0.08-0.365c0.054-0.109,0.128-0.205,0.224-0.286
		c0.096-0.082,0.21-0.146,0.343-0.19c0.133-0.046,0.279-0.068,0.439-0.068c0.198,0,0.401,0.032,0.611,0.101
		c0.209,0.065,0.395,0.154,0.559,0.268l-0.168,0.265c-0.15-0.099-0.314-0.178-0.488-0.238c-0.174-0.06-0.351-0.091-0.526-0.091
		c-0.229,0-0.411,0.056-0.546,0.164c-0.136,0.11-0.205,0.246-0.205,0.41v0.014c0,0.089,0.027,0.168,0.078,0.234
		c0.053,0.067,0.119,0.123,0.204,0.171c0.083,0.047,0.182,0.09,0.293,0.127c0.113,0.035,0.227,0.07,0.344,0.106
		c0.133,0.038,0.265,0.079,0.395,0.125c0.128,0.045,0.244,0.103,0.349,0.173c0.104,0.072,0.186,0.157,0.248,0.256
		s0.095,0.222,0.095,0.367v0.014c0,0.145-0.03,0.278-0.088,0.396c-0.058,0.119-0.139,0.221-0.242,0.304
		c-0.103,0.084-0.225,0.148-0.361,0.193C304.549,37.002,304.4,37.025,304.241,37.025"/>
	<path fill-rule="evenodd" clip-rule="evenodd" fill="#006F9A" d="M307.052,36.733c0.168,0,0.328-0.024,0.478-0.073
		c0.151-0.05,0.283-0.118,0.397-0.206c0.114-0.089,0.205-0.193,0.271-0.317c0.066-0.126,0.102-0.263,0.102-0.413V35.35
		c-0.139-0.033-0.3-0.066-0.485-0.099c-0.187-0.032-0.396-0.049-0.633-0.049c-0.351,0-0.618,0.07-0.805,0.209
		c-0.188,0.14-0.282,0.325-0.282,0.558v0.013c0,0.119,0.025,0.227,0.077,0.317c0.053,0.094,0.123,0.172,0.21,0.235
		c0.09,0.064,0.191,0.114,0.309,0.147C306.806,36.717,306.927,36.733,307.052,36.733 M307.032,37.038
		c-0.156,0-0.309-0.021-0.459-0.065s-0.286-0.107-0.408-0.193c-0.12-0.087-0.218-0.194-0.293-0.323s-0.112-0.28-0.112-0.453v-0.012
		c0-0.173,0.035-0.326,0.105-0.46c0.072-0.133,0.17-0.244,0.295-0.335c0.124-0.091,0.275-0.16,0.452-0.206
		c0.177-0.049,0.373-0.072,0.588-0.072c0.232,0,0.434,0.013,0.601,0.038c0.168,0.027,0.332,0.062,0.492,0.104v-0.143
		c0-0.333-0.096-0.584-0.288-0.751c-0.192-0.166-0.457-0.251-0.798-0.251c-0.202,0-0.389,0.024-0.556,0.074
		c-0.168,0.051-0.327,0.114-0.479,0.191l-0.115-0.278c0.181-0.088,0.363-0.158,0.55-0.211c0.185-0.053,0.392-0.08,0.619-0.08
		c0.453,0,0.8,0.121,1.041,0.363c0.224,0.223,0.335,0.534,0.335,0.93v2.055h-0.309v-0.55c-0.058,0.078-0.124,0.154-0.203,0.23
		c-0.081,0.074-0.172,0.142-0.275,0.2c-0.104,0.058-0.221,0.105-0.353,0.143S307.188,37.038,307.032,37.038"/>
	<path fill-rule="evenodd" clip-rule="evenodd" fill="#006F9A" d="M309.381,33.664h0.317v0.938c0.064-0.146,0.146-0.281,0.246-0.407
		c0.099-0.124,0.21-0.231,0.336-0.32c0.124-0.087,0.261-0.155,0.409-0.2c0.149-0.044,0.306-0.064,0.469-0.062v0.349h-0.031
		c-0.19,0-0.372,0.036-0.544,0.107c-0.173,0.071-0.323,0.176-0.455,0.316c-0.131,0.142-0.236,0.313-0.314,0.518
		c-0.077,0.205-0.115,0.439-0.115,0.707v1.351h-0.317V33.664z"/>
	<path fill-rule="evenodd" clip-rule="evenodd" fill="#006F9A" d="M311.654,33.664h0.316v3.296h-0.316V33.664z M311.614,32.373
		h0.395v0.432h-0.395V32.373z"/>
	<path fill-rule="evenodd" clip-rule="evenodd" fill="#006F9A" d="M314.333,36.733c0.194,0,0.375-0.036,0.542-0.111
		c0.166-0.076,0.31-0.177,0.429-0.303c0.118-0.127,0.211-0.275,0.278-0.447c0.066-0.171,0.101-0.354,0.101-0.547v-0.013
		c0-0.197-0.034-0.383-0.104-0.556c-0.069-0.175-0.165-0.325-0.289-0.455c-0.123-0.128-0.268-0.228-0.435-0.301
		s-0.346-0.11-0.535-0.11c-0.195,0-0.377,0.037-0.543,0.113c-0.167,0.075-0.31,0.175-0.429,0.302
		c-0.119,0.126-0.212,0.275-0.279,0.447s-0.101,0.354-0.101,0.547v0.013c0,0.197,0.034,0.382,0.104,0.558
		c0.069,0.173,0.165,0.324,0.29,0.452c0.122,0.129,0.268,0.23,0.436,0.304C313.963,36.697,314.142,36.733,314.333,36.733
		 M314.32,37.038c-0.246,0-0.472-0.046-0.677-0.14c-0.205-0.092-0.382-0.217-0.533-0.371c-0.15-0.155-0.268-0.336-0.352-0.544
		c-0.084-0.206-0.126-0.425-0.126-0.658v-0.013c0-0.233,0.042-0.452,0.126-0.659s0.202-0.39,0.355-0.549
		c0.152-0.16,0.333-0.287,0.54-0.379c0.206-0.093,0.433-0.139,0.679-0.139c0.244,0,0.47,0.046,0.675,0.139
		c0.204,0.092,0.383,0.217,0.533,0.373c0.151,0.154,0.268,0.335,0.352,0.541c0.085,0.208,0.126,0.427,0.126,0.659v0.014
		c0,0.233-0.041,0.452-0.126,0.66c-0.084,0.205-0.202,0.389-0.354,0.548c-0.153,0.16-0.333,0.286-0.54,0.378
		C314.791,36.992,314.564,37.038,314.32,37.038"/>
	<rect x="78.188" y="43.684" fill-rule="evenodd" clip-rule="evenodd" fill="#006F9A" width="0.634" height="8.541"/>
	<path fill-rule="evenodd" clip-rule="evenodd" fill="#006F9A" d="M80.633,46.002h0.598v1.159c0.212-0.366,0.496-0.675,0.854-0.927
		c0.357-0.253,0.821-0.38,1.391-0.38c0.391,0,0.74,0.064,1.05,0.19c0.309,0.125,0.571,0.303,0.786,0.53
		c0.216,0.228,0.379,0.499,0.488,0.812c0.11,0.314,0.165,0.657,0.165,1.031v3.807h-0.598v-3.696c0-0.644-0.171-1.157-0.513-1.544
		s-0.83-0.58-1.464-0.58c-0.31,0-0.594,0.056-0.854,0.165s-0.487,0.263-0.684,0.458c-0.195,0.194-0.348,0.429-0.457,0.7
		c-0.11,0.274-0.165,0.572-0.165,0.898v3.599h-0.598V46.002z"/>
	<path fill-rule="evenodd" clip-rule="evenodd" fill="#006F9A" d="M87.806,46.551h-0.902v-0.549h0.902v-0.609
		c0-0.716,0.184-1.257,0.549-1.623c0.325-0.325,0.761-0.488,1.306-0.488c0.188,0,0.354,0.012,0.501,0.036s0.288,0.062,0.427,0.11
		v0.561c-0.18-0.056-0.338-0.097-0.476-0.121c-0.139-0.024-0.289-0.037-0.452-0.037c-0.838,0-1.256,0.524-1.256,1.574v0.598h2.171
		v0.549h-2.171v5.674h-0.599V46.551z"/>
	<path fill-rule="evenodd" clip-rule="evenodd" fill="#006F9A" d="M93.973,51.799c0.367,0,0.709-0.072,1.023-0.214
		s0.584-0.332,0.81-0.571c0.225-0.237,0.399-0.521,0.526-0.844c0.127-0.325,0.189-0.668,0.189-1.032v-0.024
		c0-0.372-0.064-0.724-0.195-1.052c-0.131-0.327-0.313-0.612-0.545-0.855c-0.233-0.242-0.507-0.433-0.822-0.571
		c-0.314-0.137-0.651-0.206-1.011-0.206c-0.368,0-0.709,0.071-1.024,0.213c-0.314,0.142-0.585,0.331-0.809,0.571
		c-0.226,0.238-0.401,0.52-0.527,0.844c-0.127,0.323-0.19,0.668-0.19,1.032v0.024c0,0.373,0.066,0.723,0.196,1.051
		c0.131,0.328,0.313,0.613,0.546,0.856c0.232,0.242,0.506,0.434,0.821,0.57C93.275,51.729,93.612,51.799,93.973,51.799
		 M93.948,52.371c-0.464,0-0.89-0.087-1.275-0.263c-0.387-0.176-0.722-0.408-1.007-0.7c-0.285-0.294-0.507-0.636-0.665-1.026
		c-0.159-0.391-0.238-0.805-0.238-1.244v-0.024c0-0.439,0.079-0.854,0.238-1.245c0.158-0.389,0.383-0.735,0.671-1.036
		c0.289-0.301,0.629-0.539,1.02-0.715c0.391-0.174,0.817-0.263,1.281-0.263c0.463,0,0.888,0.089,1.274,0.263
		c0.387,0.176,0.722,0.41,1.007,0.702c0.285,0.293,0.506,0.636,0.664,1.024c0.159,0.392,0.238,0.807,0.238,1.245v0.024
		c0,0.439-0.079,0.854-0.238,1.244c-0.158,0.391-0.381,0.736-0.67,1.037c-0.289,0.302-0.629,0.538-1.02,0.714
		S94.411,52.371,93.948,52.371"/>
	<path fill-rule="evenodd" clip-rule="evenodd" fill="#006F9A" d="M98.325,46.002h0.598v1.77c0.123-0.277,0.277-0.533,0.464-0.769
		c0.188-0.236,0.399-0.438,0.635-0.604c0.236-0.168,0.494-0.294,0.775-0.379s0.575-0.123,0.884-0.115v0.658h-0.061
		c-0.358,0-0.699,0.066-1.025,0.202c-0.325,0.133-0.611,0.332-0.86,0.597c-0.248,0.264-0.445,0.591-0.591,0.977
		c-0.146,0.386-0.221,0.832-0.221,1.336v2.55h-0.598V46.002z"/>
	<path fill-rule="evenodd" clip-rule="evenodd" fill="#006F9A" d="M102.531,46.002h0.598v1.11c0.098-0.162,0.209-0.319,0.335-0.47
		c0.127-0.151,0.271-0.284,0.434-0.402c0.163-0.117,0.352-0.213,0.567-0.281s0.462-0.104,0.738-0.104
		c0.269,0,0.515,0.037,0.738,0.11c0.224,0.074,0.421,0.172,0.592,0.294c0.171,0.121,0.319,0.265,0.445,0.426
		c0.126,0.163,0.233,0.333,0.323,0.513c0.098-0.17,0.216-0.337,0.354-0.5c0.139-0.162,0.3-0.307,0.482-0.433
		c0.184-0.127,0.391-0.226,0.622-0.3c0.231-0.073,0.494-0.11,0.788-0.11c0.364,0,0.696,0.064,0.993,0.19
		c0.297,0.125,0.549,0.301,0.757,0.524c0.207,0.224,0.366,0.496,0.476,0.817s0.165,0.678,0.165,1.067v3.771h-0.599v-3.696
		c0-0.677-0.162-1.198-0.488-1.568c-0.325-0.37-0.776-0.556-1.354-0.556c-0.26,0-0.511,0.049-0.751,0.146
		c-0.239,0.099-0.448,0.24-0.628,0.428c-0.179,0.187-0.321,0.417-0.427,0.688c-0.106,0.273-0.158,0.585-0.158,0.935v3.623h-0.598
		v-3.733c0-0.65-0.163-1.161-0.488-1.531c-0.326-0.37-0.77-0.556-1.331-0.556c-0.276,0-0.536,0.058-0.78,0.171
		c-0.244,0.115-0.456,0.272-0.635,0.477c-0.179,0.203-0.319,0.438-0.421,0.708c-0.102,0.268-0.152,0.561-0.152,0.877v3.588h-0.598
		V46.002z"/>
	<path fill-rule="evenodd" clip-rule="evenodd" fill="#006F9A" d="M115.384,51.799c0.317,0,0.618-0.048,0.902-0.142
		c0.285-0.093,0.535-0.223,0.751-0.388c0.215-0.167,0.386-0.366,0.513-0.603c0.126-0.235,0.189-0.493,0.189-0.777v-0.704
		c-0.261-0.065-0.566-0.127-0.916-0.188s-0.748-0.091-1.196-0.091c-0.658,0-1.165,0.132-1.519,0.395
		c-0.354,0.264-0.53,0.613-0.53,1.05v0.024c0,0.228,0.049,0.428,0.146,0.603c0.099,0.174,0.23,0.321,0.396,0.443
		c0.167,0.121,0.361,0.215,0.58,0.28C114.92,51.766,115.147,51.799,115.384,51.799 M115.347,52.371
		c-0.293,0-0.581-0.041-0.865-0.122c-0.285-0.082-0.542-0.203-0.77-0.366c-0.228-0.162-0.413-0.366-0.555-0.609
		c-0.143-0.245-0.214-0.529-0.214-0.854v-0.024c0-0.325,0.067-0.613,0.201-0.867c0.134-0.251,0.319-0.464,0.556-0.634
		c0.235-0.171,0.521-0.302,0.854-0.39c0.334-0.09,0.704-0.135,1.111-0.135c0.438,0,0.816,0.024,1.135,0.073
		c0.316,0.049,0.625,0.114,0.927,0.194v-0.266c0-0.631-0.182-1.104-0.543-1.421c-0.362-0.315-0.864-0.473-1.507-0.473
		c-0.383,0-0.732,0.047-1.049,0.141c-0.318,0.094-0.619,0.214-0.904,0.36l-0.219-0.525c0.342-0.167,0.687-0.3,1.037-0.399
		c0.35-0.101,0.739-0.148,1.171-0.148c0.854,0,1.51,0.228,1.965,0.683c0.423,0.423,0.634,1.009,0.634,1.757v3.88h-0.585v-1.037
		c-0.106,0.147-0.234,0.291-0.384,0.433c-0.151,0.143-0.324,0.27-0.52,0.38c-0.194,0.108-0.416,0.198-0.665,0.268
		C115.91,52.337,115.641,52.371,115.347,52.371"/>
	<path fill-rule="evenodd" clip-rule="evenodd" fill="#006F9A" d="M119.783,46.002h0.598v1.159c0.212-0.366,0.496-0.675,0.854-0.927
		c0.357-0.253,0.821-0.38,1.391-0.38c0.391,0,0.74,0.064,1.049,0.19c0.31,0.125,0.572,0.303,0.787,0.53
		c0.216,0.228,0.379,0.499,0.488,0.812c0.11,0.314,0.165,0.657,0.165,1.031v3.807h-0.599v-3.696c0-0.644-0.17-1.157-0.512-1.544
		s-0.83-0.58-1.464-0.58c-0.31,0-0.594,0.056-0.854,0.165s-0.488,0.263-0.684,0.458c-0.195,0.194-0.348,0.429-0.457,0.7
		c-0.11,0.274-0.165,0.572-0.165,0.898v3.599h-0.598V46.002z"/>
	<path fill-rule="evenodd" clip-rule="evenodd" fill="#006F9A" d="M129.269,51.799c0.326,0,0.642-0.065,0.947-0.196
		s0.577-0.313,0.813-0.548c0.237-0.237,0.426-0.518,0.569-0.844c0.143-0.325,0.214-0.688,0.214-1.086v-0.024
		c0-0.398-0.071-0.762-0.214-1.091c-0.144-0.329-0.332-0.61-0.569-0.843c-0.236-0.231-0.508-0.413-0.813-0.542
		c-0.306-0.131-0.621-0.196-0.947-0.196c-0.343,0-0.662,0.062-0.961,0.184c-0.297,0.121-0.557,0.297-0.776,0.524
		c-0.221,0.228-0.394,0.507-0.52,0.836c-0.127,0.33-0.19,0.701-0.19,1.116v0.024c0,0.406,0.065,0.776,0.196,1.111
		c0.131,0.333,0.309,0.614,0.532,0.848c0.225,0.23,0.485,0.41,0.783,0.537C128.631,51.734,128.942,51.799,129.269,51.799
		 M129.213,52.371c-0.374,0-0.742-0.073-1.104-0.221c-0.362-0.146-0.685-0.357-0.971-0.634c-0.284-0.276-0.515-0.616-0.689-1.019
		s-0.262-0.855-0.262-1.36v-0.024c0-0.504,0.087-0.958,0.262-1.36s0.405-0.744,0.689-1.024c0.286-0.28,0.608-0.497,0.971-0.646
		c0.361-0.151,0.729-0.228,1.104-0.228c0.31,0,0.594,0.043,0.854,0.123c0.261,0.082,0.495,0.191,0.701,0.329
		c0.208,0.139,0.395,0.298,0.563,0.476c0.166,0.18,0.314,0.366,0.444,0.562v-4.026h0.599v8.907h-0.599v-1.391
		c-0.138,0.204-0.29,0.398-0.457,0.585c-0.167,0.188-0.354,0.351-0.561,0.488c-0.208,0.139-0.44,0.25-0.696,0.336
		C129.805,52.329,129.522,52.371,129.213,52.371"/>
	<path fill-rule="evenodd" clip-rule="evenodd" fill="#006F9A" d="M136.76,51.799c0.368,0,0.71-0.072,1.023-0.214
		c0.315-0.142,0.584-0.332,0.81-0.571c0.226-0.237,0.401-0.521,0.528-0.844c0.127-0.325,0.189-0.668,0.189-1.032v-0.024
		c0-0.372-0.065-0.724-0.196-1.052c-0.131-0.327-0.313-0.612-0.546-0.855c-0.232-0.242-0.506-0.433-0.82-0.571
		c-0.314-0.137-0.652-0.206-1.013-0.206c-0.367,0-0.709,0.071-1.023,0.213s-0.585,0.331-0.809,0.571
		c-0.225,0.238-0.401,0.52-0.527,0.844c-0.127,0.323-0.19,0.668-0.19,1.032v0.024c0,0.373,0.065,0.723,0.196,1.051
		s0.313,0.613,0.546,0.856c0.233,0.242,0.507,0.434,0.821,0.57C136.063,51.729,136.4,51.799,136.76,51.799 M136.735,52.371
		c-0.464,0-0.889-0.087-1.274-0.263c-0.387-0.176-0.723-0.408-1.007-0.7c-0.284-0.294-0.507-0.636-0.665-1.026
		s-0.238-0.805-0.238-1.244v-0.024c0-0.439,0.08-0.854,0.238-1.245c0.158-0.389,0.382-0.735,0.671-1.036s0.629-0.539,1.02-0.715
		c0.391-0.174,0.817-0.263,1.28-0.263c0.464,0,0.89,0.089,1.276,0.263c0.387,0.176,0.721,0.41,1.005,0.702
		c0.286,0.293,0.508,0.636,0.665,1.024c0.159,0.392,0.238,0.807,0.238,1.245v0.024c0,0.439-0.079,0.854-0.238,1.244
		c-0.157,0.391-0.382,0.736-0.67,1.037c-0.289,0.302-0.629,0.538-1.02,0.714S137.199,52.371,136.735,52.371"/>
	<path fill-rule="evenodd" clip-rule="evenodd" fill="#006F9A" d="M146.785,51.799c0.325,0,0.642-0.065,0.947-0.196
		c0.307-0.131,0.577-0.313,0.813-0.548c0.237-0.237,0.427-0.518,0.569-0.844c0.143-0.325,0.214-0.688,0.214-1.086v-0.024
		c0-0.398-0.071-0.762-0.214-1.091s-0.332-0.61-0.569-0.843c-0.236-0.231-0.507-0.413-0.813-0.542
		c-0.306-0.131-0.622-0.196-0.947-0.196c-0.343,0-0.663,0.062-0.961,0.184c-0.297,0.121-0.558,0.297-0.776,0.524
		c-0.221,0.228-0.394,0.507-0.521,0.836c-0.125,0.33-0.189,0.701-0.189,1.116v0.024c0,0.406,0.065,0.776,0.196,1.111
		c0.131,0.333,0.308,0.614,0.531,0.848c0.225,0.23,0.485,0.41,0.783,0.537C146.146,51.734,146.458,51.799,146.785,51.799
		 M146.729,52.371c-0.374,0-0.743-0.073-1.104-0.221c-0.363-0.146-0.686-0.357-0.97-0.634c-0.286-0.276-0.516-0.616-0.689-1.019
		c-0.176-0.402-0.263-0.855-0.263-1.36v-0.024c0-0.504,0.087-0.958,0.263-1.36c0.174-0.402,0.403-0.744,0.689-1.024
		c0.284-0.28,0.606-0.497,0.97-0.646c0.36-0.151,0.729-0.228,1.104-0.228c0.309,0,0.595,0.043,0.854,0.123
		c0.26,0.082,0.494,0.191,0.702,0.329c0.206,0.139,0.395,0.298,0.561,0.476c0.167,0.18,0.315,0.366,0.445,0.562v-4.026h0.598v8.907
		h-0.598v-1.391c-0.139,0.204-0.291,0.398-0.458,0.585c-0.166,0.188-0.354,0.351-0.561,0.488c-0.208,0.139-0.439,0.25-0.695,0.336
		C147.321,52.329,147.038,52.371,146.729,52.371"/>
	<path fill-rule="evenodd" clip-rule="evenodd" fill="#006F9A" d="M156.241,48.82c-0.024-0.316-0.088-0.62-0.19-0.908
		c-0.102-0.289-0.244-0.546-0.428-0.77c-0.185-0.224-0.409-0.402-0.679-0.536c-0.269-0.134-0.583-0.202-0.942-0.202
		c-0.311,0-0.6,0.062-0.869,0.184c-0.269,0.121-0.503,0.29-0.703,0.507c-0.199,0.215-0.365,0.471-0.495,0.769
		c-0.131,0.296-0.208,0.615-0.232,0.957H156.241z M154.125,52.371c-0.407,0-0.797-0.078-1.169-0.231
		c-0.37-0.155-0.696-0.374-0.977-0.659c-0.282-0.284-0.504-0.626-0.668-1.025c-0.162-0.398-0.244-0.841-0.244-1.33v-0.024
		c0-0.447,0.075-0.868,0.227-1.262c0.149-0.396,0.357-0.739,0.622-1.032c0.264-0.292,0.575-0.524,0.933-0.694
		c0.357-0.172,0.748-0.258,1.172-0.258c0.439,0,0.833,0.085,1.183,0.251c0.351,0.167,0.649,0.397,0.898,0.689
		c0.247,0.294,0.438,0.637,0.572,1.031s0.201,0.824,0.201,1.287v0.129c0,0.027-0.004,0.066-0.012,0.115h-5.161
		c0.024,0.389,0.11,0.732,0.257,1.032s0.331,0.555,0.551,0.765s0.471,0.37,0.753,0.48c0.28,0.108,0.576,0.164,0.887,0.164
		c0.489,0,0.902-0.095,1.241-0.282c0.339-0.187,0.639-0.419,0.898-0.695l0.415,0.366c-0.317,0.342-0.677,0.624-1.081,0.848
		C155.22,52.26,154.721,52.371,154.125,52.371"/>
	<path fill-rule="evenodd" clip-rule="evenodd" fill="#006F9A" d="M159.962,52.347c-0.456,0-0.912-0.084-1.367-0.255
		c-0.455-0.17-0.85-0.391-1.184-0.659l0.354-0.477c0.343,0.26,0.7,0.461,1.074,0.604c0.374,0.142,0.761,0.214,1.159,0.214
		c0.423,0,0.778-0.106,1.066-0.318c0.29-0.211,0.435-0.499,0.435-0.864v-0.024c0-0.178-0.045-0.332-0.135-0.462
		c-0.089-0.13-0.211-0.244-0.366-0.341c-0.154-0.098-0.329-0.179-0.523-0.244c-0.196-0.064-0.403-0.129-0.623-0.194
		c-0.252-0.073-0.507-0.149-0.762-0.231c-0.258-0.082-0.487-0.185-0.689-0.311c-0.205-0.125-0.369-0.281-0.494-0.469
		c-0.127-0.187-0.189-0.419-0.189-0.694v-0.024c0-0.251,0.051-0.481,0.152-0.688c0.101-0.208,0.242-0.389,0.421-0.542
		c0.179-0.155,0.394-0.274,0.647-0.358c0.251-0.086,0.527-0.128,0.828-0.128c0.374,0,0.759,0.063,1.153,0.186
		c0.396,0.125,0.747,0.295,1.056,0.509l-0.316,0.5c-0.286-0.187-0.594-0.337-0.921-0.45c-0.331-0.114-0.661-0.172-0.996-0.172
		c-0.43,0-0.774,0.104-1.03,0.312c-0.257,0.206-0.384,0.464-0.384,0.772v0.025c0,0.17,0.048,0.317,0.146,0.443
		c0.098,0.127,0.226,0.232,0.384,0.322c0.159,0.09,0.344,0.169,0.555,0.237c0.212,0.07,0.428,0.136,0.647,0.201
		c0.252,0.073,0.499,0.152,0.744,0.238c0.244,0.084,0.464,0.194,0.658,0.328c0.196,0.134,0.353,0.294,0.47,0.481
		c0.118,0.186,0.177,0.417,0.177,0.694v0.024c0,0.275-0.055,0.525-0.165,0.748c-0.108,0.224-0.261,0.415-0.457,0.572
		c-0.194,0.159-0.423,0.28-0.683,0.365C160.544,52.305,160.262,52.347,159.962,52.347"/>
	<path fill-rule="evenodd" clip-rule="evenodd" fill="#006F9A" d="M166.019,51.799c0.326,0,0.643-0.065,0.947-0.196
		c0.307-0.131,0.578-0.313,0.813-0.548c0.237-0.237,0.427-0.518,0.569-0.844c0.144-0.325,0.214-0.688,0.214-1.086v-0.024
		c0-0.398-0.07-0.762-0.214-1.091c-0.143-0.329-0.332-0.61-0.569-0.843c-0.235-0.231-0.507-0.413-0.813-0.542
		c-0.305-0.131-0.621-0.196-0.947-0.196c-0.342,0-0.662,0.062-0.96,0.184c-0.297,0.121-0.557,0.297-0.776,0.524
		s-0.395,0.507-0.52,0.836c-0.127,0.33-0.189,0.701-0.189,1.116v0.024c0,0.406,0.063,0.776,0.195,1.111
		c0.13,0.333,0.308,0.614,0.532,0.848c0.224,0.23,0.485,0.41,0.782,0.537C165.381,51.734,165.693,51.799,166.019,51.799
		 M165.965,52.371c-0.376,0-0.743-0.073-1.104-0.221c-0.362-0.146-0.686-0.357-0.971-0.634c-0.284-0.276-0.516-0.616-0.689-1.019
		c-0.176-0.402-0.262-0.855-0.262-1.36v-0.024c0-0.504,0.086-0.958,0.262-1.36c0.174-0.402,0.405-0.744,0.689-1.024
		c0.285-0.28,0.608-0.497,0.971-0.646c0.361-0.151,0.729-0.228,1.104-0.228c0.309,0,0.593,0.043,0.853,0.123
		c0.262,0.082,0.495,0.191,0.702,0.329c0.208,0.139,0.395,0.298,0.562,0.476c0.166,0.18,0.314,0.366,0.445,0.562v-4.026h0.599v8.907
		h-0.599v-1.391c-0.139,0.204-0.291,0.398-0.457,0.585c-0.167,0.188-0.355,0.351-0.562,0.488c-0.207,0.139-0.44,0.25-0.695,0.336
		C166.557,52.329,166.273,52.371,165.965,52.371"/>
	<path fill-rule="evenodd" clip-rule="evenodd" fill="#006F9A" d="M175.476,48.82c-0.024-0.316-0.088-0.62-0.189-0.908
		c-0.103-0.289-0.246-0.546-0.43-0.77c-0.183-0.224-0.408-0.402-0.679-0.536c-0.269-0.134-0.583-0.202-0.941-0.202
		c-0.31,0-0.6,0.062-0.868,0.184c-0.27,0.121-0.505,0.29-0.703,0.507c-0.2,0.215-0.365,0.471-0.496,0.769
		c-0.131,0.296-0.209,0.615-0.233,0.957H175.476z M173.359,52.371c-0.407,0-0.797-0.078-1.168-0.231
		c-0.372-0.155-0.697-0.374-0.979-0.659c-0.281-0.284-0.502-0.626-0.666-1.025c-0.164-0.398-0.245-0.841-0.245-1.33v-0.024
		c0-0.447,0.075-0.868,0.226-1.262c0.151-0.396,0.358-0.739,0.622-1.032c0.266-0.292,0.575-0.524,0.935-0.694
		c0.357-0.172,0.748-0.258,1.172-0.258c0.438,0,0.832,0.085,1.183,0.251c0.35,0.167,0.649,0.397,0.896,0.689
		c0.248,0.294,0.439,0.637,0.573,1.031c0.135,0.395,0.201,0.824,0.201,1.287v0.129c0,0.027-0.004,0.066-0.013,0.115h-5.161
		c0.024,0.389,0.11,0.732,0.258,1.032s0.33,0.555,0.551,0.765s0.472,0.37,0.752,0.48c0.282,0.108,0.576,0.164,0.888,0.164
		c0.489,0,0.903-0.095,1.241-0.282c0.338-0.187,0.638-0.419,0.899-0.695l0.415,0.366c-0.317,0.342-0.678,0.624-1.083,0.848
		C174.455,52.26,173.955,52.371,173.359,52.371"/>
	<polygon fill-rule="evenodd" clip-rule="evenodd" fill="#006F9A" points="181.225,44.282 179.577,44.843 179.407,44.344 
		181.362,43.622 181.858,43.622 181.858,52.225 181.225,52.225 	"/>
	<path fill-rule="evenodd" clip-rule="evenodd" fill="#006F9A" d="M186.307,51.774c0.391,0,0.741-0.05,1.056-0.147
		c0.313-0.098,0.577-0.229,0.792-0.396c0.216-0.167,0.381-0.359,0.495-0.574s0.17-0.446,0.17-0.689v-0.024
		c0-0.269-0.065-0.515-0.194-0.739c-0.131-0.223-0.311-0.416-0.538-0.578c-0.227-0.163-0.493-0.29-0.798-0.38
		c-0.307-0.088-0.633-0.133-0.982-0.133s-0.678,0.045-0.982,0.133c-0.306,0.09-0.571,0.217-0.8,0.38
		c-0.228,0.162-0.406,0.355-0.536,0.578c-0.13,0.225-0.195,0.471-0.195,0.739v0.024c0,0.243,0.057,0.475,0.171,0.689
		c0.113,0.215,0.279,0.407,0.493,0.574c0.216,0.166,0.479,0.298,0.794,0.396C185.563,51.725,185.916,51.774,186.307,51.774
		 M186.307,47.576c0.301,0,0.585-0.043,0.854-0.128c0.268-0.086,0.503-0.206,0.707-0.359c0.203-0.155,0.363-0.34,0.481-0.557
		c0.119-0.215,0.178-0.453,0.178-0.713v-0.024c0-0.243-0.058-0.468-0.172-0.672c-0.113-0.203-0.27-0.378-0.47-0.523
		c-0.198-0.147-0.435-0.262-0.707-0.342c-0.272-0.082-0.563-0.122-0.872-0.122s-0.601,0.04-0.873,0.122
		c-0.272,0.08-0.508,0.194-0.707,0.342c-0.199,0.146-0.357,0.32-0.471,0.523c-0.113,0.204-0.171,0.429-0.171,0.672v0.024
		c0,0.26,0.06,0.498,0.177,0.713c0.118,0.217,0.279,0.401,0.481,0.557c0.205,0.153,0.439,0.273,0.709,0.359
		C185.721,47.533,186.005,47.576,186.307,47.576 M186.307,52.347c-0.447,0-0.865-0.059-1.252-0.177
		c-0.386-0.118-0.721-0.283-1.006-0.494c-0.285-0.212-0.508-0.464-0.671-0.756c-0.162-0.294-0.244-0.619-0.244-0.977v-0.024
		c0-0.253,0.048-0.486,0.146-0.701c0.099-0.216,0.23-0.413,0.397-0.592c0.166-0.18,0.366-0.339,0.598-0.477
		c0.232-0.139,0.482-0.253,0.751-0.341c-0.211-0.082-0.414-0.186-0.604-0.312c-0.191-0.126-0.36-0.271-0.506-0.433
		c-0.147-0.164-0.266-0.349-0.354-0.557c-0.09-0.206-0.135-0.437-0.135-0.688v-0.024c0-0.335,0.081-0.637,0.243-0.91
		c0.164-0.272,0.379-0.506,0.647-0.7c0.269-0.196,0.576-0.349,0.921-0.457c0.346-0.11,0.702-0.166,1.068-0.166
		s0.721,0.056,1.068,0.166c0.345,0.108,0.651,0.261,0.919,0.457c0.27,0.194,0.484,0.428,0.647,0.7
		c0.162,0.273,0.244,0.575,0.244,0.91v0.024c0,0.252-0.044,0.482-0.134,0.688c-0.09,0.208-0.208,0.393-0.354,0.557
		c-0.147,0.162-0.315,0.307-0.508,0.433c-0.19,0.126-0.392,0.229-0.604,0.312c0.269,0.088,0.52,0.202,0.751,0.341
		c0.231,0.138,0.432,0.297,0.599,0.477c0.166,0.179,0.298,0.376,0.396,0.592c0.098,0.215,0.147,0.448,0.147,0.701v0.024
		c0,0.357-0.082,0.683-0.245,0.977c-0.162,0.292-0.387,0.544-0.671,0.756c-0.284,0.211-0.62,0.376-1.007,0.494
		C187.171,52.288,186.753,52.347,186.307,52.347"/>
	<path fill-rule="evenodd" clip-rule="evenodd" fill="#006F9A" d="M193.315,51.774c0.391,0,0.742-0.05,1.056-0.147
		c0.313-0.098,0.578-0.229,0.793-0.396c0.215-0.167,0.381-0.359,0.494-0.574c0.114-0.215,0.171-0.446,0.171-0.689v-0.024
		c0-0.269-0.065-0.515-0.195-0.739c-0.13-0.223-0.31-0.416-0.536-0.578c-0.229-0.163-0.496-0.29-0.8-0.38
		c-0.306-0.088-0.633-0.133-0.982-0.133s-0.678,0.045-0.982,0.133c-0.305,0.09-0.571,0.217-0.799,0.38
		c-0.229,0.162-0.407,0.355-0.537,0.578c-0.129,0.225-0.196,0.471-0.196,0.739v0.024c0,0.243,0.058,0.475,0.172,0.689
		s0.279,0.407,0.495,0.574c0.215,0.166,0.479,0.298,0.792,0.396S192.925,51.774,193.315,51.774 M193.315,47.576
		c0.302,0,0.586-0.043,0.854-0.128c0.268-0.086,0.504-0.206,0.707-0.359c0.204-0.155,0.364-0.34,0.481-0.557
		c0.118-0.215,0.179-0.453,0.179-0.713v-0.024c0-0.243-0.058-0.468-0.172-0.672c-0.114-0.203-0.271-0.378-0.47-0.523
		c-0.199-0.147-0.435-0.262-0.707-0.342c-0.273-0.082-0.564-0.122-0.873-0.122s-0.601,0.04-0.872,0.122
		c-0.272,0.08-0.509,0.194-0.708,0.342c-0.199,0.146-0.355,0.32-0.471,0.523c-0.113,0.204-0.17,0.429-0.17,0.672v0.024
		c0,0.26,0.059,0.498,0.177,0.713c0.118,0.217,0.279,0.401,0.481,0.557c0.205,0.153,0.439,0.273,0.708,0.359
		C192.73,47.533,193.015,47.576,193.315,47.576 M193.315,52.347c-0.446,0-0.864-0.059-1.25-0.177
		c-0.387-0.118-0.723-0.283-1.007-0.494c-0.285-0.212-0.509-0.464-0.671-0.756c-0.163-0.294-0.245-0.619-0.245-0.977v-0.024
		c0-0.253,0.049-0.486,0.147-0.701c0.098-0.216,0.229-0.413,0.396-0.592c0.167-0.18,0.367-0.339,0.599-0.477
		c0.231-0.139,0.481-0.253,0.751-0.341c-0.212-0.082-0.414-0.186-0.604-0.312c-0.191-0.126-0.36-0.271-0.507-0.433
		c-0.146-0.164-0.265-0.349-0.354-0.557c-0.089-0.206-0.134-0.437-0.134-0.688v-0.024c0-0.335,0.08-0.637,0.243-0.91
		c0.162-0.272,0.379-0.506,0.646-0.7c0.27-0.196,0.575-0.349,0.921-0.457c0.347-0.11,0.702-0.166,1.068-0.166
		s0.722,0.056,1.067,0.166c0.346,0.108,0.653,0.261,0.921,0.457c0.27,0.194,0.484,0.428,0.646,0.7
		c0.163,0.273,0.245,0.575,0.245,0.91v0.024c0,0.252-0.045,0.482-0.135,0.688c-0.09,0.208-0.207,0.393-0.354,0.557
		c-0.146,0.162-0.314,0.307-0.507,0.433c-0.191,0.126-0.393,0.229-0.604,0.312c0.268,0.088,0.519,0.202,0.751,0.341
		c0.231,0.138,0.432,0.297,0.598,0.477c0.167,0.179,0.299,0.376,0.396,0.592c0.097,0.215,0.146,0.448,0.146,0.701v0.024
		c0,0.357-0.082,0.683-0.244,0.977c-0.163,0.292-0.387,0.544-0.671,0.756c-0.285,0.211-0.62,0.376-1.007,0.494
		C194.181,52.288,193.763,52.347,193.315,52.347"/>
	<path fill-rule="evenodd" clip-rule="evenodd" fill="#006F9A" d="M200.276,52.371c-0.7,0-1.311-0.143-1.83-0.427
		c-0.521-0.284-0.956-0.654-1.306-1.11l0.488-0.402c0.341,0.439,0.729,0.776,1.164,1.012c0.436,0.236,0.934,0.355,1.495,0.355
		c0.284,0,0.556-0.048,0.813-0.142c0.256-0.093,0.479-0.222,0.67-0.384c0.191-0.163,0.344-0.36,0.457-0.592
		c0.115-0.232,0.172-0.491,0.172-0.775v-0.024c0-0.301-0.068-0.564-0.201-0.793c-0.135-0.228-0.319-0.421-0.557-0.58
		c-0.235-0.158-0.516-0.277-0.841-0.359c-0.326-0.081-0.68-0.122-1.063-0.122h-0.462l-0.16-0.354l2.94-3.392h-4.478v-0.599h5.345
		v0.453l-2.892,3.318c0.407,0.024,0.793,0.091,1.159,0.199c0.366,0.11,0.688,0.263,0.964,0.458c0.277,0.194,0.496,0.438,0.659,0.729
		c0.162,0.292,0.243,0.633,0.243,1.022v0.023c0,0.374-0.074,0.712-0.226,1.017c-0.15,0.304-0.354,0.566-0.609,0.785
		c-0.257,0.219-0.554,0.389-0.891,0.506C200.994,52.313,200.643,52.371,200.276,52.371"/>
	<rect x="208.988" y="48.595" fill-rule="evenodd" clip-rule="evenodd" fill="#006F9A" width="104.86" height="0.747"/>
</g>
</svg>
